<svg width="262" height="297" viewBox="0 0 262 297" fill="none" xmlns="http://www.w3.org/2000/svg">
<path d="M248.439 51.9368C243.991 43.9047 238.459 36.6868 232.004 30.2829C225.549 23.879 218.063 18.3977 209.71 13.839C192.949 4.66725 172.716 0 149.663 0H112.561C89.508 0 69.2212 4.61298 52.3517 13.7847C35.4822 22.9564 22.4098 35.7642 13.514 51.8825C4.56391 68.0551 0.00748381 87.2125 0.00748381 108.866C-0.209487 130.737 4.29262 149.949 13.3512 166.284C22.3555 182.511 35.4823 195.428 52.2433 204.545C69.0043 213.717 89.3453 218.384 112.615 218.384H149.718C172.771 218.384 192.949 213.717 209.764 204.545C226.525 195.428 239.543 182.566 248.494 166.284C257.444 149.949 262 130.792 262 109.138C262 87.4839 257.444 68.0008 248.494 51.8282L248.439 51.9368ZM231.353 120.48C231.353 147.29 209.547 169.161 182.697 169.161H79.2561C52.4602 169.161 30.6004 147.29 30.6004 120.48V98.0123C30.6004 71.1485 52.4602 49.3318 79.2561 49.3318H182.697C209.547 49.3318 231.353 71.1485 231.353 98.0123V120.48Z" fill="#E2E0B7"/>
<path d="M158.068 91.1741H204.663C209.273 91.1741 213.016 94.9187 213.016 99.5317V103.331C213.016 107.944 209.273 111.688 204.663 111.688H158.068C153.458 111.688 149.715 107.944 149.715 103.331V99.5317C149.715 94.9187 153.458 91.1741 158.068 91.1741Z" fill="#E2E0B7"/>
<path d="M57.3455 91.1741H103.94C108.551 91.1741 112.293 94.9187 112.293 99.5317V103.331C112.293 107.944 108.551 111.688 103.94 111.688H57.3455C52.7349 111.688 48.9922 107.944 48.9922 103.331V99.5317C48.9922 94.9187 52.7349 91.1741 57.3455 91.1741Z" fill="#E2E0B7"/>
<ellipse cx="131" cy="283.384" rx="107" ry="13" fill="#191926"/>
</svg>
