<svg width="314" height="262" viewBox="0 0 314 262" fill="none" xmlns="http://www.w3.org/2000/svg">
<path d="M297.372 62.1662C292.048 52.5522 285.425 43.9126 277.699 36.2474C269.973 28.5822 261.013 22.0213 251.014 16.5647C230.952 5.58652 206.735 0 179.141 0H134.731C107.138 0 82.855 5.52156 62.6629 16.4997C42.4708 27.4779 26.8236 42.8083 16.1757 62.1013C5.46281 81.4592 0.00895782 104.39 0.00895782 130.309C-0.250748 156.487 5.13809 179.483 15.9808 199.036C26.7586 218.459 42.4709 233.919 62.5331 244.832C82.5954 255.811 106.943 261.397 134.796 261.397H179.206C206.8 261.397 230.952 255.811 251.079 244.832C271.142 233.919 286.724 218.524 297.437 199.036C308.15 179.483 313.604 156.552 313.604 130.634C313.604 104.715 308.15 81.3942 297.437 62.0363L297.372 62.1662ZM276.92 144.21C276.92 176.3 250.82 202.479 218.681 202.479H94.8664C62.7928 202.479 36.6274 176.3 36.6274 144.21V117.317C36.6274 85.1619 62.7928 59.0482 94.8664 59.0482H218.681C250.82 59.0482 276.92 85.1619 276.92 117.317V144.21Z" fill="#E2E0B7"/>
<path d="M189.204 109.132H244.975C250.494 109.132 254.974 113.614 254.974 119.136V123.683C254.974 129.204 250.494 133.687 244.975 133.687H189.204C183.685 133.687 179.205 129.204 179.205 123.683V119.136C179.205 113.614 183.685 109.132 189.204 109.132Z" fill="#E2E0B7"/>
<path d="M68.6383 109.132H124.41C129.929 109.132 134.409 113.614 134.409 119.136V123.683C134.409 129.204 129.929 133.687 124.41 133.687H68.6383C63.1195 133.687 58.6396 129.204 58.6396 123.683V119.136C58.6396 113.614 63.1195 109.132 68.6383 109.132Z" fill="#E2E0B7"/>
</svg>
