<svg width="111" height="20" viewBox="0 0 111 20" fill="none" xmlns="http://www.w3.org/2000/svg">
<g clip-path="url(#clip0_6713_2465)">
<path d="M42.2983 4.75898C41.4822 3.28357 40.2951 2.11119 38.7668 1.27165C38.0001 0.854361 37.1593 0.536428 36.2393 0.322816C35.3243 0.114172 34.34 0.00488281 33.2915 0.00488281H29.9083C27.8063 0.00488281 25.9564 0.427138 24.4182 1.26668C22.88 2.10622 21.688 3.2786 20.8768 4.75401C20.0607 6.23439 19.6452 7.98799 19.6452 9.97011C19.6254 11.9721 20.031 13.7307 20.862 15.2259C21.683 16.7113 22.88 17.8936 24.4083 18.7282C25.9366 19.5677 27.7914 19.9949 29.9133 19.9949H33.2964C35.3985 19.9949 37.2384 19.5677 38.7717 18.7282C40.2951 17.8936 41.4822 16.7163 42.3032 15.2259C43.1193 13.7356 43.5348 11.9771 43.5348 9.99495C43.5348 8.01283 43.1193 6.22942 42.3032 4.74905L42.2983 4.75898ZM40.7403 11.0332C40.7403 13.4872 38.747 15.4892 36.3036 15.4892H26.8714C24.4231 15.4892 22.4348 13.4872 22.4348 11.0332V8.97657C22.4348 6.51755 24.4231 4.52053 26.8714 4.52053H36.3036C38.747 4.52053 40.7403 6.51755 40.7403 8.97657V11.0332Z" fill="#E2E0B7"/>
<path d="M19.6162 17.2032V20.005H5.06974C2.2752 20.005 0 17.7198 0 14.9131V0H4.91641V15.1018C4.91641 16.2593 5.85122 17.2032 7.00365 17.2032H19.6112H19.6162Z" fill="#E2E0B7"/>
<path d="M66.3712 0.00488281V19.9999H63.4332C62.0978 19.9999 60.8365 19.4783 59.8968 18.5295L49.5743 8.16186C49.4308 8.0178 49.2478 7.94328 49.0549 7.94328C48.961 7.94328 48.862 7.96315 48.7681 8.0029C48.4911 8.12212 48.313 8.38044 48.313 8.68347V19.9999H45.5234V0.00488281H45.9983C47.5464 0.00488281 49.0005 0.610943 50.0986 1.70881L62.4836 14.1529C62.6715 14.3417 62.9386 14.3914 63.1859 14.292C63.4332 14.1927 63.5816 13.9641 63.5816 13.6959V0.00488281H66.3712Z" fill="#E2E0B7"/>
<path d="M91.017 4.75898C90.6114 4.02376 90.1069 3.36305 89.5184 2.77687C88.9298 2.19068 88.2472 1.68894 87.4855 1.27165C85.9572 0.432106 84.1123 0.00488281 82.0102 0.00488281H78.6271C76.525 0.00488281 74.6752 0.427138 73.1369 1.26668C71.5987 2.10622 70.4067 3.2786 69.5955 4.75401C68.7794 6.23439 68.364 7.98799 68.364 9.97011C68.3442 11.9721 68.7547 13.7307 69.5807 15.2259C70.4017 16.7113 71.5987 17.8936 73.127 18.7282C74.6554 19.5677 76.5102 19.9949 78.632 19.9949H82.0152C84.1172 19.9949 85.9572 19.5677 87.4905 18.7282C89.0188 17.8936 90.2059 16.7163 91.022 15.2259C91.8381 13.7307 92.2535 11.9771 92.2535 9.99495C92.2535 8.01283 91.8381 6.22942 91.022 4.74905L91.017 4.75898ZM89.459 11.0332C89.459 13.4872 87.4707 15.4892 85.0224 15.4892H75.5902C73.1468 15.4892 71.1536 13.4872 71.1536 11.0332V8.97657C71.1536 6.51755 73.1468 4.52053 75.5902 4.52053H85.0224C87.4707 4.52053 89.459 6.51755 89.459 8.97657V11.0332Z" fill="#E2E0B7"/>
<path d="M82.7773 8.35059H87.026C87.4464 8.35059 87.7877 8.69336 87.7877 9.11561V9.46335C87.7877 9.88561 87.4464 10.2284 87.026 10.2284H82.7773C82.3569 10.2284 82.0156 9.88561 82.0156 9.46335V9.11561C82.0156 8.69336 82.3569 8.35059 82.7773 8.35059Z" fill="#E2E0B7"/>
<path d="M73.5937 8.35059H77.8424C78.2628 8.35059 78.6041 8.69336 78.6041 9.11561V9.46335C78.6041 9.88561 78.2628 10.2284 77.8424 10.2284H73.5937C73.1733 10.2284 72.832 9.88561 72.832 9.46335V9.11561C72.832 8.69336 73.1733 8.35059 73.5937 8.35059Z" fill="#E2E0B7"/>
<path d="M97.1026 19.7667C97.063 19.8512 97.0235 19.9108 96.974 19.9456C96.9245 19.9804 96.8652 20.0002 96.7959 20.0002H95.9798C95.9155 20.0002 95.8661 19.9804 95.8216 19.9456C95.777 19.9108 95.7573 19.8512 95.7523 19.7667L95.3368 9.16069C95.3319 9.07623 95.3467 9.00669 95.3913 8.95204C95.4308 8.8974 95.4852 8.87256 95.5545 8.87256H96.5882C96.6476 8.87256 96.702 8.88746 96.7465 8.92223C96.791 8.95701 96.8207 9.01165 96.8256 9.10107L96.8899 16.7464L96.8405 17.3574L97.0185 16.7464L99.7735 9.10107C99.7982 9.01662 99.8427 8.95701 99.907 8.92223C99.9713 8.88746 100.031 8.87256 100.085 8.87256H101.119C101.193 8.87256 101.238 8.8974 101.257 8.95204C101.272 9.00669 101.267 9.07127 101.242 9.15572L97.0977 19.7717L97.1026 19.7667Z" fill="#E2E0B7"/>
<path d="M105.501 19.7269C105.487 19.8014 105.457 19.866 105.422 19.9206C105.383 19.9753 105.323 20.0001 105.239 20.0001H104.151C104.092 20.0001 104.047 19.9753 104.013 19.9206C103.978 19.866 103.973 19.7964 103.988 19.712L105.437 11.4109V11.401C105.472 11.2222 105.472 11.0582 105.437 10.8993C105.407 10.7403 105.343 10.6012 105.259 10.482C105.175 10.3628 105.056 10.2634 104.913 10.1939C104.769 10.1193 104.611 10.0846 104.428 10.0846C104.245 10.0846 104.072 10.1193 103.909 10.1939C103.746 10.2684 103.597 10.3628 103.464 10.482C103.33 10.6012 103.221 10.7403 103.137 10.8993C103.053 11.0582 102.989 11.2271 102.959 11.401L101.5 19.707C101.49 19.7865 101.465 19.856 101.426 19.9107C101.386 19.9653 101.322 19.9951 101.238 19.9951H100.15C100.09 19.9951 100.046 19.9703 100.016 19.9157C99.9865 19.861 99.9815 19.7915 99.9964 19.707L101.465 11.3265C101.53 10.9638 101.663 10.6211 101.866 10.2982C102.069 9.98024 102.316 9.70205 102.608 9.45863C102.9 9.22018 103.226 9.03141 103.582 8.89728C103.938 8.76315 104.304 8.6936 104.68 8.6936C105.056 8.6936 105.422 8.76812 105.744 8.91715C106.06 9.06618 106.322 9.26986 106.535 9.52818C106.842 9.26986 107.178 9.06618 107.544 8.91715C107.915 8.76812 108.291 8.6936 108.682 8.6936C109.072 8.6936 109.399 8.76315 109.706 8.89728C110.012 9.03141 110.274 9.22018 110.482 9.45863C110.69 9.69708 110.838 9.97527 110.932 10.2982C111.021 10.6161 111.036 10.9589 110.972 11.3265L109.503 19.6871C109.493 19.7617 109.468 19.8312 109.429 19.8958C109.389 19.9604 109.325 19.9902 109.231 19.9902H108.182C108.103 19.9902 108.049 19.9604 108.019 19.8958C107.989 19.8362 107.984 19.7617 107.999 19.6822L109.458 11.3911C109.493 11.2122 109.488 11.0483 109.458 10.8893C109.429 10.7304 109.364 10.5913 109.275 10.472C109.186 10.3528 109.072 10.2535 108.929 10.1839C108.786 10.1094 108.627 10.0746 108.444 10.0746C108.261 10.0746 108.088 10.1094 107.925 10.1839C107.757 10.2584 107.613 10.3528 107.48 10.472C107.346 10.5913 107.237 10.7304 107.153 10.8893C107.069 11.0483 107.005 11.2172 106.975 11.3911L105.526 19.712L105.501 19.7269Z" fill="#E2E0B7"/>
</g>
<defs>
<clipPath id="clip0_6713_2465">
<rect width="111" height="20" fill="white"/>
</clipPath>
</defs>
</svg>
